<svg xmlns="http://www.w3.org/2000/svg" viewBox="0 0 1661.61 526.8"><defs><style>.cls-1{fill:#ee001d;}.cls-2{fill:#fff;}.cls-3{fill:#0032a0;}</style></defs><g id="katman_2" data-name="katman 2"><g id="katman_1-2" data-name="katman 1"><path class="cls-1" d="M0,207.55C0,194.27,0,181,0,167.7c.15-22.33,12.16-34.79,34.64-35.29,25.77-.57,51.55-.23,77.31-1,25.94-.82,36.7-11.57,37.89-37.66.91-19.88.74-39.81,1.07-59.73C151.34,10.53,161.45.42,184.62.32c10.15,0,20.31.17,30.46,0,66.18-1.35,68.77-.55,67.45,66.79A195.24,195.24,0,0,0,284.87,102c3.31,20.26,12.54,28.3,33.22,29.25,19.89.92,39.82,1,59.73,1,45.48-.05,72-26,73.45-71.55.27-8.58-.28-17.22.37-25.76,1-12.6,8.72-20.08,21.34-20.33q28.11-.55,56.24,0c12.61.26,20.77,8,21.13,20.43q.82,29.26,0,58.58c-.36,13.29-8.19,19.89-21.86,20.8-15.09,1-30.67.45-45.11,4.16-32.78,8.4-49.88,32.26-50.09,66.15-.14,21.48.14,43,0,64.45-.19,22.9-12.73,35.32-35.68,35.47-20.31.14-40.62.11-60.93,0-59.06-.24-76.57,47.16-71.19,89.3,1.9,14.91,9.47,20.68,24.86,20.94,21.47.37,43,0,64.44.15,23.73.15,33.39,9.88,33.45,33.5.06,22.65.14,45.31,0,68-.15,19.7-10.67,30.06-30.54,30.17q-35.16.18-70.31,0c-19.05-.13-29.5-10.62-29.67-29.79-.19-22.26,0-44.53-.08-66.79-.07-17.92-9.17-27.23-27.35-27.64-14.06-.32-28.13,0-42.18-.23s-22.17-7.21-22.69-21.29c-.71-19.1-.73-38.28,0-57.39.56-13.93,8.77-20.36,23-21.08s29.19,0,42.89-3.48c33.73-8.66,50.16-30.51,50.92-65.38.44-20.68-.06-41.4-.91-62.06-1-25.09-8.16-34.57-32.88-37.2a303.57,303.57,0,0,0-64.14.18c-24.11,2.6-32,13-32.69,37.6-.69,25-.43,50-.56,75s-12.55,37.48-37.42,37.55q-38.67.1-77.34,0C12.58,284.56.15,272.12,0,248.56,0,234.89,0,221.22,0,207.55Z"/><path class="cls-2" d="M874.11,325.67c-3.48,13.11-13.08,19.2-24.28,22.85-27.54,9-52.43,6.51-70.94-19.36-2.55,1.48-4.72,2.38-6.44,3.81-28.51,23.48-60.81,24.88-94,14.13-32.21-10.46-50.51-39.89-47.69-72.51,2.71-31.37,26.67-55,61.54-61.12,15.72-2.75,31.65-5,46.95-9.4,33.7-9.62,47.5-46.59,29.37-76.76-6-10-14.17-16.43-26.7-15.59-12,.8-17.72,8.83-21.74,18.6-3,7.19-4.13,15.33-8.07,21.85-4.24,7-9.66,14.68-16.53,18.43-16.27,8.87-34.43,4-42.45-9.38-8.52-14.15-5-35.67,10.54-44.42,13.88-7.78,30.07-14.15,45.71-15.45,23.82-2,48.5-1.7,72,2.33,43,7.36,65.57,35.61,65.86,79.59.18,28.85-2.21,57.71-3.1,86.57-.39,12.45-.79,25,.44,37.37,1.54,15.41,5,17.51,20.54,16.71a36.24,36.24,0,0,1,4.66,0C870.56,324,871.25,324.45,874.11,325.67ZM774.52,198.78c-21,20.41-41.55,37.67-58.28,58.09-7.14,8.71-8.85,24.13-8.38,36.33.87,22.47,17.67,36.19,38.54,35.07,17.67-.95,29.22-15.83,29.35-38.3.15-26.12.07-52.23,0-78.35C775.74,208.34,775.14,205.07,774.52,198.78Z"/><path class="cls-2" d="M1334.73,344.54H1203.44c-.15-.8-.3-1.59-.46-2.38,2.19-1.22,4.26-2.77,6.59-3.61,18.34-6.61,24.45-14,24.6-33.58.37-48,0-96.05.3-144.07.06-8.42-3.58-11.84-11.14-13.32-6.3-1.23-12.46-3.22-20.58-5.38L1304.52,98v36.73l2.53.46c2.38-3.36,4.74-6.73,7.16-10.07,15.72-21.65,44-31.49,69.6-24.14,13.35,3.84,21.26,12.41,22.81,26.51,1.2,10.88-1.07,20.52-11.11,26.28-11.7,6.71-23.93,6.85-35.54-.34-4.24-2.63-7.77-6.49-11.34-10.07-11.52-11.59-24.53-11.18-30.82,3.75-6.39,15.14-11.25,31.93-12,48.23-1.81,37.79-1,75.72-.71,113.58.14,15.14,7.77,23.84,22.62,29.1a77.58,77.58,0,0,1,7.76,3.71Z"/><path class="cls-3" d="M447.5,357.12c0-11.31-.15-22.63,0-33.94.29-17.66,10.1-27.78,27.44-27.95q35.11-.32,70.23,0c16.41.17,26.24,9.79,26.48,26.24q.51,36.27,0,72.57c-.21,15.66-9.64,25.89-25.38,26.33-24.17.69-48.38.65-72.56.05-16.08-.4-25.83-11-26.18-27C447.3,381.32,447.51,369.22,447.5,357.12Z"/><path class="cls-2" d="M1536.87,98.65c-71.91.09-130.41,58-130.27,129,.14,71.31,54.24,125.5,125.25,125.46,72.24-.05,129.93-57.38,129.76-129C1661.44,152.07,1608.24,98.56,1536.87,98.65Zm-2.44,243.94c-29.78,0-53.91-51.95-53.91-116s24.13-116,53.91-116,53.91,51.95,53.91,116S1564.2,342.59,1534.43,342.59Z"/><path class="cls-2" d="M1176.8,174c-9.52-36.08-30.25-62.88-68-71.57-40.07-9.22-76.86-3.07-106.06,29.11-1.7,1.87-4,3.2-9.22,7.32V97.5L891.56,141.44c8,2.14,13.84,4.4,19.92,5.22,9.12,1.24,12.13,5.6,12.1,14.85-.3,85.94-.13,171.88-.22,257.82,0,19.39-9.05,31.53-27.29,37.64-3.73,1.25-7.42,2.6-12.78,4.49,12.3,6.24,142.33,5.27,150.1-1.34-40.24-5.26-41.79-33.5-39.74-63.87.21-3.11,0-6.25,0-9.38V337.54c26.16,12.61,51,16.13,76.59,15.5,49.85-1.24,86.82-25.87,102.46-69.61C1185.54,247.57,1186.49,210.73,1176.8,174ZM1050.68,339.84c-27.07,0-49-47.22-49-105.48s21.94-105.48,49-105.48,49,47.23,49,105.48S1077.75,339.84,1050.68,339.84Z"/></g></g></svg>